<svg width="512" height="512" xmlns="http://www.w3.org/2000/svg" xml:space="preserve" version="1.1">

 <g>
  <title>Layer 1</title>
  <ellipse ry="250" rx="250" id="svg_7" cy="256.99511" cx="254.83028" stroke="#a8d0e6" fill="#a8d0e6"/>
  <g stroke="null" id="svg_1">
   <path stroke="null" id="svg_2" fill="#333333" d="m253.48994,183.01514c6.28346,0 12.21886,1.43279 17.48429,3.99255l0,-141.4837c0,-8.02615 -4.46651,-14.524 -11.918,-14.524c-10.81149,0 -16.91628,10.76941 -19.60715,25.59253c-2.05544,11.19757 -16.92387,76.88065 -16.92387,98.92137c0,11.25203 3.34651,24.36418 7.15738,35.30285c6.66606,-4.90166 14.90214,-7.8016 23.80735,-7.8016z" class="st0"/>
   <path stroke="null" id="svg_3" fill="#333333" d="m240.41823,260.3977c-13.9726,-4.79441 -24.43014,-17.05107 -26.53951,-31.97558c-40.81381,23.43412 -118.19403,67.85573 -120.97338,69.43181c-6.9863,4.01266 -10.40108,11.10205 -6.68628,17.53286c5.41544,9.31567 17.83908,9.17323 32.08557,4.10064c10.79042,-3.8434 75.44024,-23.86145 94.63782,-34.89479c9.93757,-5.69766 19.84059,-15.3401 27.47579,-24.19493z" class="st0"/>
   <path stroke="null" id="svg_4" fill="#333333" d="m407.88127,292.33976c-8.74172,-7.37428 -58.51637,-53.01921 -77.71395,-64.03328c-10.62693,-6.11157 -25.12624,-9.91308 -37.18751,-11.99776c0.35564,2.09808 0.5402,4.27073 0.5402,6.48444c0,12.71834 -5.99608,24.05165 -15.33278,31.29019c40.02838,22.97161 120.71382,69.30277 123.55553,70.93833c6.97956,4.0135 14.86085,3.41524 18.60345,-3.00803c5.40785,-9.32321 -0.9228,-19.94347 -12.46494,-29.6739z" class="st0"/>
   <path stroke="null" id="svg_5" fill="#333333" d="m224.05478,222.79987c0,16.16794 13.18127,29.27338 29.43516,29.27338c16.26822,0 29.45033,-13.10545 29.45033,-29.27338c0,-16.1671 -13.18127,-29.26584 -29.45033,-29.26584c-16.25389,0 -29.43516,13.09791 -29.43516,29.26584zm43.65468,0c0,7.80914 -6.36436,14.13103 -14.21952,14.13103c-7.84084,0 -14.2052,-6.32188 -14.2052,-14.13103c0,-7.8016 6.36436,-14.13019 14.2052,-14.13019c7.85516,-0.00084 14.21952,6.32775 14.21952,14.13019z" class="st0"/>
   <polygon stroke="null" id="svg_6" fill="#333333" points="277.10768127441406,276.81700134277344 233.97128295898438,276.81700134277344 223.6999969482422,425.2333984375 209.2141571044922,425.2333984375 209.2141571044922,460 221.295654296875,460 290.36395263671875,460 302.4454650878906,460 302.4454650878906,425.2333984375 287.8441467285156,425.2333984375 " class="st0"/>
  </g>
 </g>
</svg>