<svg width="512" height="512" xmlns="http://www.w3.org/2000/svg" xml:space="preserve" version="1.1">

 <g>
  <title>Layer 1</title>
  <ellipse ry="250" rx="250" id="svg_3" cy="257.49511" cx="256.33028" stroke="#cbaacb" fill="#cbaacb"/>
  <g stroke="null" id="svg_1">
   <path stroke="#cbaacb" id="svg_2" fill="#333333" d="m254.99999,68c-100.51092,0 -181.99999,84.83974 -181.99999,189.49999c0,104.65951 81.48908,189.49999 181.99999,189.49999c100.51803,0 181.99999,-84.84048 181.99999,-189.49999c0,-104.66025 -81.48197,-189.49999 -181.99999,-189.49999zm-9.47395,172.4139c2.88712,-1.73733 6.15174,-2.64412 9.46684,-2.64412c6.75391,0 13.05139,3.77668 16.43119,9.86436c5.20904,9.42614 2.11148,21.50381 -6.9352,26.95045c-2.88641,1.72253 -6.16525,2.64412 -9.45973,2.64412c-6.76102,0 -13.04286,-3.77594 -16.42408,-9.8651c-5.23748,-9.418 -2.10366,-21.50381 6.92098,-26.94971zm-113.54667,13.92825c-1.34936,-1.49527 -2.00911,-3.50427 -1.8719,-5.52067c0,0 -0.11588,-4.32075 0.69672,-10.30998c2.2558,-16.55016 7.52954,-32.58512 15.55318,-47.14849c8.09616,-14.54857 18.8043,-27.29022 31.4405,-37.60835c4.57062,-3.73892 8.21986,-5.77827 8.21986,-5.77827c1.61738,-1.1481 3.62009,-1.52636 5.52754,-1.08074c1.90745,0.46043 3.54758,1.71438 4.51943,3.47466l39.13071,70.52583c1.7553,3.18745 0.97114,7.26688 -1.84275,9.50979c0,0 0.08745,-0.58182 -1.98067,1.57892c-2.07452,2.13039 -3.8803,4.55466 -5.36758,7.23653c-1.50221,2.70408 -2.60416,5.55916 -3.34425,8.48235c-0.75502,2.93059 -0.33343,2.56787 -0.33343,2.56787c-0.46424,3.66342 -3.43098,6.39711 -6.97927,6.39711l-78.21805,0c-1.95863,0 -3.82982,-0.83128 -5.15003,-2.32656zm182.60856,114.44911c-0.56591,1.93349 -1.90105,3.52796 -3.65635,4.44141c0,0 -3.52554,2.25179 -8.92937,4.51691c-14.89414,6.24684 -30.86819,9.50239 -46.9951,9.53274c-16.12691,-0.03035 -32.10878,-3.2859 -46.98728,-9.53274c-5.40526,-2.26512 -8.9308,-4.51691 -8.9308,-4.51691c-1.76312,-0.91345 -3.09755,-2.50791 -3.65564,-4.44141c-0.58084,-1.96384 -0.34125,-4.06389 0.6306,-5.81528l39.13071,-70.54137c1.74109,-3.19559 5.51332,-4.51691 8.79216,-3.08974c0,0 -0.52183,0.1821 2.30628,0.98229c2.8082,0.79279 5.73869,1.22361 8.71325,1.22361c2.96745,0 5.91216,-0.43082 8.72747,-1.22361c2.79967,-0.80019 2.29988,-0.98229 2.29988,-0.98229c3.28595,-1.42717 7.03686,-0.10511 8.80709,3.08974l39.10867,70.54137c0.97967,1.75139 1.21926,3.85144 0.63842,5.81528zm65.33373,-119.97052c0.13081,2.0164 -0.53747,4.02613 -1.87901,5.52067c-1.32732,1.49601 -3.19211,2.32656 -5.15074,2.32656l-78.21734,0c-3.54758,0 -6.52143,-2.73443 -6.98567,-6.39711c0,0 0.43509,0.36271 -0.31921,-2.56787c-0.75359,-2.92393 -1.87119,-5.77827 -3.35136,-8.48235c-1.49439,-2.67373 -3.3087,-5.10614 -5.35336,-7.23653c-2.08945,-2.16 -2.00271,-1.57892 -2.00271,-1.57892c-2.80678,-2.24291 -3.59095,-6.32234 -1.82071,-9.50979l39.10867,-70.52583c0.97185,-1.76028 2.61127,-3.01423 4.51232,-3.47466c1.92237,-0.44562 3.91727,-0.06736 5.52754,1.08074c0,0 3.64142,2.03935 8.22626,5.77827c12.65255,10.31813 23.34505,23.05978 31.42628,37.60835c8.03786,14.56337 13.33363,30.59833 15.561,47.14849c0.82042,5.98924 0.71805,10.30998 0.71805,10.30998z" class="st0"/>
  </g>
 </g>
</svg>