<svg width="512" height="512" xmlns="http://www.w3.org/2000/svg" xml:space="preserve" version="1.1">

 <g>
  <title>Layer 1</title>
  <ellipse ry="250" rx="250" id="svg_3" cy="257.49511" cx="256.33028" stroke="#f6e27f" fill="#f6e27f"/>
  <path transform="rotate(2.04175 256.231 262.18)" stroke="#f6e27f" id="svg_10" d="m485.7646,262.15472l-92.61692,31.20706l0,-62.38089l92.61692,31.17383zm-67.24771,-153.72553l-42.1943,84.11617l-46.56285,-44.13523l88.75715,-39.98094zm-162.28576,-63.66042l32.93085,87.73871l-65.87925,0l32.94839,-87.73871zm-162.3033,63.66042l88.79224,39.98094l-46.5804,44.13523l-42.21184,-84.11617zm-67.23016,153.72553l92.63446,-31.17383l0,62.38089l-92.63446,-31.20706zm67.23016,153.72553l42.21184,-84.08293l46.5804,44.11861l-88.79224,39.96432l0,0zm162.3033,63.71027l-32.94839,-87.75533l65.87925,0l-32.93085,87.75533zm162.28576,-63.71027l-88.7747,-39.9477l46.56285,-44.11861l42.21184,84.06631zm-277.04372,-153.72553l0,0c0,-60.02125 51.38757,-108.69298 114.77551,-108.69298c63.3704,0 114.77551,48.67172 114.77551,108.69298c0,60.03787 -51.40511,108.70959 -114.77551,108.70959c-63.40548,0 -114.77551,-48.67172 -114.77551,-108.70959l0,0z" fill="#333333"/>
  <path id="svg_12" d="m256.33028,348.9951c-50.55249,0 -91.5,-39.15746 -91.5,-87.5c0,-48.34254 40.94752,-87.5 91.5,-87.5c50.55249,0 91.5,39.15746 91.5,87.5c0,48.34254 -40.94752,87.5 -91.5,87.5z" opacity="undefined" stroke="#f6e27f" fill="#f6e27f"/>
 </g>
</svg>