<svg width="512" height="512" xmlns="http://www.w3.org/2000/svg" xml:space="preserve" version="1.1">

 <g>
  <title>Layer 1</title>
  <ellipse ry="250" rx="250" id="svg_3" cy="255.49511" cx="255.33028" stroke="#89c9b8" fill="#89c9b8"/>
  <path transform="rotate(0.51335 253.581 252.28)" stroke="#333333" id="svg_13" d="m199.23041,453.58765c-65.53075,-21.85893 -112.50102,-91.31524 -101.82657,-150.57406c6.73099,-37.36718 148.73794,-264.21202 161.13965,-257.40795c4.04775,2.22075 40.06768,55.1078 80.04428,117.5268c64.03831,99.98866 72.68469,118.63345 72.68469,156.73515c0,77.23057 -69.62678,140.49116 -153.22815,139.21809c-24.39606,-0.37155 -50.86233,-2.84566 -58.81389,-5.49802l0,-0.00001zm65.65441,-38.84413c2.1691,-9.99861 -2.8978,-14.8749 -15.45653,-14.8749c-28.62262,0 -68.32684,-32.18096 -77.19737,-62.56976c-9.46244,-32.4166 -34.5516,-36.2719 -38.2574,-5.87877c-7.13974,58.5567 118.88296,138.76852 130.91128,83.32343l0.00002,0z" fill="#333333"/>
  <rect id="svg_19" height="1" width="0" y="405.99511" x="-100.16973" stroke="#333333" fill="#333333"/>
  <rect id="svg_20" height="1" width="0" y="338.99511" x="304.83028" stroke="#333333" fill="#333333"/>
 </g>
</svg>