<svg width="512" height="512" xmlns="http://www.w3.org/2000/svg" xml:space="preserve" version="1.1" fill="#000000">

 <g>
  <title>Layer 1</title>
  <ellipse ry="250" rx="250" id="svg_10" cy="257.99511" cx="253.33028" stroke="#f4a261" fill="#f4a261"/>
  <g stroke="null" id="svg_1">
   <g stroke="null" id="svg_2">
    <path fill="#333333" stroke="null" id="svg_3" d="m389.22823,173.19676l-10.92414,0l0,-25.6926c12.71495,-4.88303 21.84763,-18.03151 21.84763,-33.45217c0,-19.56755 -14.7014,-35.487 -32.77177,-35.487l-43.69591,0c-18.07037,0 -32.77177,15.91945 -32.77177,35.487c0,15.42137 9.13333,28.56914 21.84763,33.45217l0,25.6926l-19.26904,0c-4.16525,0 -7.90849,-2.50599 -9.77127,-6.53881l-31.61824,-68.4758c-5.58704,-12.10059 -16.81936,-19.61715 -29.31185,-19.61715l-103.01773,0c-18.07037,0 -32.77177,15.91945 -32.77177,35.487l0,283.89599c0,19.56755 14.7014,35.487 32.77177,35.487l269.45646,0c18.07037,0 32.77177,-15.91945 32.77177,-35.487l0,-189.26352c0,-19.56826 -14.7014,-35.48771 -32.77177,-35.48771zm-65.54354,-70.97329l43.69591,0c6.02346,0 10.92414,5.30672 10.92414,11.82924c0,6.52252 -4.90068,11.82924 -10.92414,11.82924l-43.69591,0c-6.02346,0 -10.92414,-5.30672 -10.92414,-11.82924c0,-6.52323 4.90068,-11.82924 10.92414,-11.82924zm32.77177,47.31553l0,23.65776l-21.84763,0l0,-23.65776l21.84763,0zm43.69591,248.40899c0,6.52252 -4.90068,11.82924 -10.92414,11.82924l-269.45646,0c-6.02346,0 -10.92414,-5.30672 -10.92414,-11.82924l0,-283.89599c0,-6.52252 4.90068,-11.82924 10.92414,-11.82924l103.01904,0c4.1646,0 7.90849,2.50599 9.77127,6.53881l31.61824,68.4758c5.58704,12.10059 16.81936,19.61715 29.31185,19.61715c11.08313,0 85.87777,0 95.73672,0c6.02346,0 10.92414,5.30672 10.92414,11.82924l0,189.26423l-0.00065,0z"/>
   </g>
  </g>
  <g stroke="null" id="svg_4">
   <g stroke="null" id="svg_5">
    <path fill="#333333" stroke="null" id="svg_6" d="m246.64748,168.32087l-25.33746,-44.78311c-2.14682,-3.79412 -6.53686,-6.19076 -11.3376,-6.19076l-78.516,0c-6.99917,0 -12.67443,5.01256 -12.67443,11.19595l0,44.78311c0,6.18272 5.67449,11.19595 12.67443,11.19595l103.85346,0c9.4003,0 15.54773,-8.7584 11.3376,-16.20113zm-102.51663,-6.19076l0,-22.39122l58.00736,0l12.66911,22.39122l-70.67647,0z"/>
   </g>
  </g>
  <g stroke="null">
   <path stroke="null" fill="#333333" d="m260.27817,357.42028c20.59416,-4.10657 47.22184,-18.84394 47.22184,-56.95256c0,-34.67971 -25.51821,-57.77289 -43.86777,-68.3839c-4.07153,-2.35462 -8.83812,0.74195 -8.83812,5.42695l0,11.98336c0,9.44956 -3.99379,26.69799 -15.09154,33.87229c-5.66588,3.66288 -11.78504,-1.81932 -12.47364,-8.50622l-0.56547,-5.49098c-0.65731,-6.3834 -7.19277,-10.25849 -12.32138,-6.36655c-9.21358,6.99178 -18.84209,19.23519 -18.84209,37.46504c0,46.60422 34.84445,58.25544 52.26645,58.25544c1.01327,0 2.07859,-0.03015 3.18739,-0.09372c-8.60292,-0.7314 -22.51266,-6.04123 -22.51266,-23.21069c0,-13.43056 9.84987,-22.51665 17.33365,-26.9332c2.01271,-1.18819 4.36866,0.35456 4.36866,2.68244l0,3.86146c0,2.95508 1.14899,7.5748 3.88376,10.73697c3.09515,3.57834 7.63774,-0.1704 8.00405,-4.87663c0.11595,-1.48442 1.61675,-2.43078 2.90936,-1.67907c4.22504,2.45634 9.61816,7.70325 9.61816,16.20803c0,13.42204 -7.43812,19.5963 -14.28066,22.00152z"/>
  </g>
 </g>
</svg>