<svg width="512" height="512" xmlns="http://www.w3.org/2000/svg" fill="#000000" version="1.1" xml:space="preserve">
 <g>
  <title>Layer 1</title>
  <ellipse fill="#f4a261" stroke="#f4a261" cx="253.33028" cy="257.99511" id="svg_10" rx="250" ry="250"/>
  <g transform="rotate(0.0502441 258.5 249)" stroke-width="3" id="svg_1" stroke="null">
   <g id="svg_2" stroke="null">
    <path d="m393.22823,166.19676l-10.92414,0l0,-25.6926c12.71495,-4.88303 21.84763,-18.03151 21.84763,-33.45217c0,-19.56755 -14.7014,-35.487 -32.77177,-35.487l-43.69591,0c-18.07037,0 -32.77177,15.91945 -32.77177,35.487c0,15.42137 9.13333,28.56914 21.84763,33.45217l0,25.6926l-19.26904,0c-4.16525,0 -7.90849,-2.50599 -9.77127,-6.53881l-31.61824,-68.4758c-5.58704,-12.10059 -16.81936,-19.61715 -29.31185,-19.61715l-103.01773,0c-18.07037,0 -32.77177,15.91945 -32.77177,35.487l0,283.89599c0,19.56755 14.7014,35.487 32.77177,35.487l269.45646,0c18.07037,0 32.77177,-15.91945 32.77177,-35.487l0,-189.26352c0,-19.56826 -14.7014,-35.48771 -32.77177,-35.48771zm-65.54354,-70.97329l43.69591,0c6.02346,0 10.92414,5.30672 10.92414,11.82924c0,6.52252 -4.90068,11.82924 -10.92414,11.82924l-43.69591,0c-6.02346,0 -10.92414,-5.30672 -10.92414,-11.82924c0,-6.52323 4.90068,-11.82924 10.92414,-11.82924zm32.77177,47.31553l0,23.65776l-21.84763,0l0,-23.65776l21.84763,0zm43.69591,248.40899c0,6.52252 -4.90068,11.82924 -10.92414,11.82924l-269.45646,0c-6.02346,0 -10.92414,-5.30672 -10.92414,-11.82924l0,-283.89599c0,-6.52252 4.90068,-11.82924 10.92414,-11.82924l103.01904,0c4.1646,0 7.90849,2.50599 9.77127,6.53881l31.61824,68.4758c5.58704,12.10059 16.81936,19.61715 29.31185,19.61715c11.08313,0 85.87777,0 95.73672,0c6.02346,0 10.92414,5.30672 10.92414,11.82924l0,189.26423l-0.00065,0l-0.00001,0z" id="svg_3" stroke="#333333" fill="#333333"/>
   </g>
  </g>
  <g id="svg_4" stroke="null">
   <g id="svg_5" stroke="null">
    <path d="m252.64748,158.32087l-25.33746,-44.78311c-2.14682,-3.79412 -6.53686,-6.19076 -11.3376,-6.19076l-78.516,0c-6.99917,0 -12.67443,5.01256 -12.67443,11.19595l0,44.78311c0,6.18272 5.67449,11.19595 12.67443,11.19595l103.85346,0c9.4003,0 15.54773,-8.7584 11.3376,-16.20113l0,-0.00001zm-102.51663,-6.19076l0,-22.39122l58.00736,0l12.66911,22.39122l-70.67647,0z" id="svg_6" stroke="null" fill="#333333"/>
   </g>
  </g>
  <g stroke="null">
   <path stroke="null" fill="#333333" d="m271.5105,389.70465c30.5235,-6.3621 69.98951,-29.19398 69.98951,-88.23377c0,-53.72755 -37.82164,-89.50467 -65.0183,-105.94378c-6.03459,-3.6479 -13.09935,1.14946 -13.09935,8.4077l0,18.56523c0,14.63973 -5.91937,41.36187 -22.36782,52.47666c-8.39765,5.67472 -17.46711,-2.81857 -18.48771,-13.17826l-0.8381,-8.5069c-0.97422,-9.88948 -10.66072,-15.89296 -18.26205,-9.86339c-13.65584,10.83202 -27.92667,29.80013 -27.92667,58.04274c0,72.20161 51.64446,90.25226 77.46635,90.25226c1.50181,0 3.08076,-0.04671 4.72417,-0.14519c-12.75075,-1.13312 -33.36698,-9.35937 -33.36698,-35.95916c0,-20.80729 14.59892,-34.88392 25.69094,-41.72628c2.98312,-1.84081 6.47498,0.5493 6.47498,4.15577l0,5.98236c0,4.57815 1.70296,11.73526 5.75629,16.63426c4.58746,5.54374 11.32022,-0.26399 11.86314,-7.55512c0.17186,-2.29974 2.39626,-3.76588 4.31209,-2.60129c6.26211,3.80548 14.2555,11.93427 14.2555,25.11029c0,20.79409 -11.02435,30.35958 -21.16598,34.08587z"/>
  </g>
 </g>

</svg>