<svg width="512" height="512" xmlns="http://www.w3.org/2000/svg" xml:space="preserve" version="1.1" fill="#000000">
 <g>
  <title>Layer 1</title>
  <ellipse ry="250" rx="250" id="svg_10" cy="253.99511" cx="253.33028" stroke="#f4a261" fill="#f4a261"/>
  <g transform="rotate(0.0502441 261 250)" stroke="null" id="svg_1" stroke-width="10">
   <g stroke="null" id="svg_2">
    <path stroke="#333333" fill="#333333" id="svg_3" d="m388.08058,171.39288l-10.30405,0l0,-24.39061c11.9932,-4.63558 20.60748,-17.11775 20.60748,-31.75695c0,-18.57595 -13.8669,-33.68867 -30.91153,-33.68867l-41.21558,0c-17.04463,0 -30.91153,15.11272 -30.91153,33.68867c0,14.63988 8.61489,27.12138 20.60748,31.75695l0,24.39061l-18.17526,0c-3.92882,0 -7.45958,-2.379 -9.21662,-6.20745l-29.82348,-65.00573c-5.2699,-11.48738 -15.86463,-18.62304 -27.64801,-18.62304l-97.17008,0c-17.04463,0 -30.91153,15.11272 -30.91153,33.68867l0,269.50933c0,18.57595 13.8669,33.68867 30.91153,33.68867l254.16116,0c17.04463,0 30.91153,-15.11272 30.91153,-33.68867l0,-179.67244c0,-18.57662 -13.8669,-33.68934 -30.91153,-33.68934zm-61.82306,-67.37666l41.21558,0c5.68155,0 10.30405,5.0378 10.30405,11.22978c0,6.19199 -4.6225,11.22978 -10.30405,11.22978l-41.21558,0c-5.68155,0 -10.30405,-5.0378 -10.30405,-11.22978c0,-6.19266 4.6225,-11.22978 10.30405,-11.22978zm30.91153,44.91778l0,22.45888l-20.60748,0l0,-22.45888l20.60748,0zm41.21558,235.82066c0,6.19199 -4.6225,11.22978 -10.30405,11.22978l-254.16116,0c-5.68155,0 -10.30405,-5.0378 -10.30405,-11.22978l0,-269.50933c0,-6.19199 4.6225,-11.22978 10.30405,-11.22978l97.17132,0c3.9282,0 7.45958,2.379 9.21662,6.20745l29.82348,65.00573c5.2699,11.48738 15.86463,18.62304 27.64801,18.62304c10.45401,0 81.00304,0 90.30237,0c5.68155,0 10.30405,5.0378 10.30405,11.22978l0,179.67311l-0.00061,0l-0.00001,0z"/>
   </g>
  </g>
  <g stroke="null" id="svg_4">
   <g stroke="null" id="svg_5">
    <path stroke="null" fill="#333333" id="svg_6" d="m247.8983,171.21501l-20.63139,-36.78315c-1.74808,-3.11635 -5.32273,-5.08486 -9.2318,-5.08486l-63.93278,0c-5.69917,0 -10.32034,4.11713 -10.32034,9.19593l0,36.78315c0,5.07825 4.62053,9.19593 10.32034,9.19593l84.56417,0c7.65433,0 12.65996,-7.19382 9.2318,-13.30699l0,-0.00001zm-83.47564,-5.08486l0,-18.3913l47.23333,0l10.316,18.3913l-57.54933,0z"/>
   </g>
  </g>
 </g>

</svg>