<svg width="512" height="512" xmlns="http://www.w3.org/2000/svg" version="1.1" xml:space="preserve">
 <g>
  <title>Layer 1</title>
  <ellipse fill="#89c9b8" stroke="#89c9b8" cx="255.33028" cy="255.49511" id="svg_3" rx="250" ry="250"/>
  <path transform="rotate(0.51335 253.581 252.28)" stroke="#333333" fill="#333333" d="m199.23041,453.58765c-65.53075,-21.85893 -112.50102,-91.31524 -101.82657,-150.57406c6.73099,-37.36718 148.73794,-264.21202 161.13965,-257.40795c4.04775,2.22075 40.06768,55.1078 80.04428,117.5268c64.03831,99.98866 72.68469,118.63345 72.68469,156.73515c0,77.23057 -69.62678,140.49116 -153.22815,139.21809c-24.39606,-0.37155 -50.86233,-2.84566 -58.81389,-5.49802l0,-0.00001l-0.00001,0zm65.65441,-38.84413c2.1691,-9.99861 -2.8978,-14.8749 -15.45653,-14.8749c-28.62262,0 -68.32684,-32.18096 -77.19737,-62.56976c-9.46244,-32.4166 -34.5516,-36.2719 -38.2574,-5.87877c-7.13974,58.5567 118.88296,138.76852 130.91128,83.32343l0.00002,0z" id="svg_13"/>
  <rect fill="#333333" stroke="#333333" x="-100.16973" y="405.99511" width="0" height="1" id="svg_19"/>
  <rect fill="#333333" stroke="#333333" x="304.83028" y="338.99511" width="0" height="1" id="svg_20"/>
  <path transform="rotate(0.51335 258.581 260.28)" stroke="#333333" fill="#89c9b8" d="m218.16143,416.19201c-48.73394,-16.92966 -83.66481,-70.72329 -75.72643,-116.61902c5.00571,-28.94073 110.6135,-204.63117 119.83641,-199.36145c3.01023,1.71996 29.79755,42.68077 59.52737,91.02404c47.62404,77.44082 54.05418,91.88114 54.05418,121.39076c0,59.81477 -51.78008,108.80985 -113.95278,107.82386c-18.14287,-0.28776 -37.82532,-2.20395 -43.73874,-4.25819l0,-0.00001l-0.00001,0zm48.8259,-30.08463c1.61312,-7.74388 -2.15504,-11.52055 -11.49472,-11.52055c-21.28608,0 -50.81334,-24.92403 -57.41018,-48.46003c-7.03703,-25.10653 -25.69535,-28.09244 -28.45128,-4.55308c-5.30969,45.35193 88.41093,107.47567 97.35616,64.53367l0.00001,0z" id="svg_1"/>
  <rect id="svg_2" height="36" width="7" y="314.99511" x="124.83028" stroke="#333333" fill="#333333"/>
  <line stroke="#333333" stroke-width="5" fill-opacity="0" id="svg_4" y2="349.99511" x2="143.83028" y1="304.99511" x1="136.83028" fill="none"/>
  <line id="svg_5" y2="386.99511" x2="162.83028" y1="334.99511" x1="138.83028" fill-opacity="0" stroke-width="5" stroke="#333333" fill="none"/>
  <line id="svg_6" y2="360.99511" x2="149.83028" y1="357.99511" x1="141.83028" fill-opacity="0" stroke-width="5" stroke="#333333" fill="none"/>
  <line stroke="#333333" stroke-width="7" id="svg_7" y2="420.99511" x2="174.83027" y1="423.99511" x1="262.83025" fill="none"/>
  <line id="svg_8" y2="427.99511" x2="235.83028" y1="411.99511" x1="200.83028" stroke-width="7" stroke="#333333" fill="none"/>
  <line id="svg_9" y2="411.99511" x2="194.83028" y1="384.99511" x1="164.83028" stroke-width="7" stroke="#333333" fill="none"/>
  <line id="svg_10" y2="403.99511" x2="171.83028" y1="394.99511" x1="175.83028" stroke-width="7" stroke="#333333" fill="none"/>
  <rect id="svg_11" height="57" width="13" y="308.99511" x="121.83028" stroke-width="7" stroke="#333333" fill="none"/>
  <rect id="svg_12" height="17" width="16" y="394.99511" x="152.83028" stroke-width="7" stroke="#333333" fill="none"/>
  <rect id="svg_14" height="18" width="53" y="421.99511" x="208.83028" stroke="#333333" fill="#333333"/>
  <path id="svg_22" d="m132.83028,312.99511c-0.73358,117.65233 42,103 42,103c0,0 31,4 30.16972,3.00489c0.83028,0.99511 -48.16972,-25.00489 -49,-26c0.83028,0.99511 10.83028,-3.00489 10,-4" opacity="NaN" stroke="#333333" fill="#333333"/>
  <line stroke-width="5" id="svg_23" y2="442.99511" x2="231.83028" y1="368.99511" x1="151.83028" stroke="#333333" fill="none"/>
  <path d="m177.83028,399.99512c0,1 0.85274,2.1731 2,3c1.814,1.30746 3,5 4,4c1,-1 -2.14935,-1.47427 -3,-2c-1.90211,-1.17557 -2.29289,-2.29291 -3,-3c-1.41422,-1.41422 -0.69344,-2.4588 -2,-3c-0.92387,-0.38269 0,0 1,1c1,1 1.29289,2.29291 2,3c1.41422,1.41422 1.97325,1.22977 1,1c-2.17625,-0.51373 -4.4588,-2.69345 -5,-4c-0.38269,-0.92389 -3.69344,-4.4588 -5,-5c-0.92387,-0.38269 0,2 1,3c2,2 4.87766,6.06601 6,8c1.80972,3.11847 2.94853,6.29871 4,8c1.17557,1.9021 1.52573,-0.14935 1,-1c-1.17557,-1.9021 -3.21167,-3.71411 -6,-6c-2.18735,-1.79318 -3.29289,-3.29291 -4,-4c-0.70711,-0.70709 2.186,0.69254 4,2c2.29454,1.65381 4.41885,3.41885 6,5c1.58115,1.58115 1.69344,5.5412 3,5c0.92387,-0.38269 -1,-2 -2,-4c-1,-2 -5.1731,-5.85272 -6,-7c-1.30745,-1.814 -2.92387,-2.61731 -2,-3c3.91969,-1.6236 5.29869,2.82108 7,6c0.47186,0.88168 2.72961,10.77115 7,6c0.94318,-1.05377 -1.79626,-1.16125 -5,-5c-1.43275,-1.71674 -3,-4 -4,-5c-1,-1 -1.61731,-2.92389 -2,-2c-0.5412,1.30655 3.1731,1.85272 4,3c1.30745,1.814 3,3 5,5c1,1 2,6 4,4c1,-1 -2.41885,-1.41885 -4,-3c-1.58115,-1.58115 -3.186,-3.69254 -5,-5c-1.14726,-0.8269 -2.92387,-1.61731 -2,-2c2.61313,-1.0824 3,3 5,5c1,1 1.67633,1.47983 0,0c-2.703,-2.38617 -6.38687,-9.9176 -9,-11c-0.92387,-0.38269 -1.69344,-2.4588 -3,-3c-0.92387,-0.38269 -0.12234,0.06601 1,2c1.80972,3.11847 2.4888,4.2222 4,7c3.05995,5.62463 5.23463,8.15225 6,10c0.5412,1.30655 2.38269,1.92389 2,1c-0.5412,-1.30655 -3.69255,-3.186 -5,-5c-1.65381,-2.29453 -2.69255,-4.186 -4,-6c-0.8269,-1.14728 -2.70711,-1.29291 -2,-2c0.70711,-0.70709 2,2 4,4c1,1 2.38269,2.92389 2,2c-1.0824,-2.61313 -3.82443,-3.0979 -5,-5c-1.05147,-1.70129 -2,-4 -1,-3c1,1 3,4 4,5c1,1 3.1731,2.85272 4,4c1.30745,1.814 2.92387,2.61731 2,3c-2.61313,1.0824 -1.41885,-3.41885 -3,-5c-1.58115,-1.58115 -3.48625,-1.82376 -4,-4c-0.22975,-0.97324 -1.92387,-1.61731 -1,-2c2.61313,-1.0824 2.186,2.69254 4,4c2.29454,1.65381 2.82443,2.0979 4,4c0.52573,0.85065 1,1 -1,-1c-3,-3 -3.9176,-4.38687 -5,-7c-0.38269,-0.92389 0.61731,0.07611 1,1c1.0824,2.61313 2.61731,3.07611 3,4c0.5412,1.30655 1.29289,2.29291 2,3c0.70711,0.70709 -0.23463,-1.15225 -1,-3c-0.5412,-1.30655 -2.29289,-3.29291 -3,-4c-0.70711,-0.70709 -1.38269,-0.92389 -1,0c0.5412,1.30655 3,3 5,6l1,1l2,2l1,1" id="svg_25" stroke="#333333" fill="none"/>
  <path d="m154.83028,364.99512c0,1 -1.41422,2.58578 0,4c0.70711,0.70709 0.29289,1.29291 1,2c0.70711,0.70709 0.41422,1.41422 -1,0c-0.70711,-0.70709 0,-3 -1,-4c-1,-1 -2.4588,-2.69345 -3,-4c-0.38269,-0.92389 -0.29289,-2.29291 -1,-3c-0.70711,-0.70709 -0.38269,0.07611 0,1c1.0824,2.61313 3,2 4,4c1,2 0.33749,2.31 2,5c0.7435,1.203 2.4588,1.69345 3,3c0.38269,0.92389 1.4588,1.69345 2,3c0.38269,0.92389 1.97325,1.77023 1,2c-2.17625,0.51373 -2.69255,-4.186 -4,-6c-0.8269,-1.14728 -2.4588,-1.69345 -3,-3c-0.76537,-1.84775 -0.4588,-2.69345 -1,-4c-0.38269,-0.92389 -0.61731,-2.92389 -1,-2c-0.5412,1.30655 0.58578,2.58578 2,4c0.70711,0.70709 2.61731,2.07611 3,3c0.5412,1.30655 1.61731,1.07611 2,2c0.5412,1.30655 2.4588,1.69345 3,3c0.38269,0.92389 1,1 1,2c0,1 0.29289,1.29291 1,2c0.70711,0.70709 1.4588,0.69345 2,2c0.38269,0.92389 0,2 0,3c0,1 1,3 1,4c0,1 0,2 0,4c0,1 0,2 0,4c0,1 -1,1 -2,1c-1,0 -2.4588,0.30655 -3,-1c-0.38269,-0.92389 -0.70711,-2.29291 0,-3c0.70711,-0.70709 1.47427,1.14935 2,2c1.17557,1.9021 1,1 1,-2c0,-3 0,-7 0,-8c0,-1 0,-2 0,-1c0,1 1.4588,1.69345 2,3c0.38269,0.92389 0,2 0,3c0,1 -2,0 -2,-2l-1,-1l-1,-1l0,-1" id="svg_27" stroke="#333333" fill="none"/>
  <path d="m193.83028,410.99512c1,0 1.69344,0.4588 3,1c0.92387,0.38269 0.69344,1.4588 2,2c0.92387,0.38269 1.29289,1.29291 2,2c0.70711,0.70709 2.92387,0.61731 2,1c-1.30656,0.5412 -2,-2 -3,-3c-1,-1 -1.29289,-1.29291 -2,-2c-0.70711,-0.70709 -1.29289,-2.29291 -2,-3c-0.70711,-0.70709 -1.61731,-1.07611 -2,-2c-0.5412,-1.30655 -1.29289,-1.29291 -2,-2c-0.70711,-0.70709 2.82443,3.0979 4,5c0.52573,0.85065 1.82443,1.0979 3,3c0.52573,0.85065 1.29289,1.29291 2,2c0.70711,0.70709 0.65381,2.29453 -1,0c-1.30745,-1.814 -3,-4 -5,-6c-2,-2 -2.69344,-3.4588 -4,-4c-0.92387,-0.38269 -0.65381,-1.29453 1,1c1.30745,1.814 2.71022,3.04291 3,4c1.04483,3.45084 4.4588,4.69345 5,6c0.38269,0.92389 -0.186,0.30746 -2,-1c-3.4418,-2.48071 -4.34619,-3.70547 -6,-6c-1.30745,-1.814 -3.82443,-2.0979 -5,-4c-0.52573,-0.85065 0.85274,1.1731 2,2c1.814,1.30746 3,3 4,4c1,1 1.47427,2.85065 2,2c1.17557,-1.9021 -3.11833,-3.52814 -4,-4c-3.17892,-1.70129 -3.4588,-2.69345 -4,-4c-0.38269,-0.92389 -0.38269,-1.92389 0,-1c0.5412,1.30655 3,3 4,4c2,2 3,3 4,4c2,2 2.61731,3.92389 3,3c1.0824,-2.61313 -4.82443,-4.0979 -6,-6c-0.52573,-0.85065 -1,-2 0,-1c2,2 3,4 5,6c1,1 1.29289,1.29291 2,2c0.70711,0.70709 0.7932,1.18735 -1,-1c-2.28587,-2.78833 -3.19028,-3.88153 -5,-7c-1.12234,-1.93399 -1.22975,-2.97324 -1,-2c0.51375,2.17624 4.34619,3.70547 6,6c1.30745,1.814 1.61731,3.07611 2,4c0.5412,1.30655 0.29454,-0.34619 -2,-2c-1.814,-1.30746 -2.07613,-2.61731 -3,-3c-1.30656,-0.5412 -1,-3 -2,-3c-1,0 -0.05147,1.29871 1,3c1.17557,1.9021 3.4588,1.69345 4,3c0.38269,0.92389 0,2 1,2c1,0 -0.82375,-5.51373 -3,-5c-0.97325,0.22977 1,3 2,4c1,1 2.4588,1.69345 3,3c0.38269,0.92389 0.58115,-0.41885 -1,-2c-1.58115,-1.58115 -4.69344,-5.4588 -6,-6c-0.92387,-0.38269 -1.4588,-0.69345 -2,-2c-0.38269,-0.92389 0.14935,-0.52573 1,0c1.90211,1.17557 2,3 4,5c1,1 2.4588,1.69345 3,3c0.38269,0.92389 1.92387,1.61731 1,2c-2.61313,1.0824 -3.82443,-4.0979 -5,-6c-1.05147,-1.70129 -1.61731,-3.07611 -2,-4c-0.5412,-1.30655 -1.22975,-1.97324 -1,-1c1.02748,4.35251 3.95517,6.54916 5,10c0.28978,0.95709 0,2 1,2c1,0 -1.81145,-1.13464 -4,-4c-1.91948,-2.51309 -2.38269,-3.92389 -2,-3c0.5412,1.30655 2.34619,2.70547 4,5c1.30745,1.814 3.51375,1.82376 3,4c-0.22975,0.97324 -1.71413,-1.21167 -4,-4c-1.7932,-2.18735 -2,-5 -3,-4c-1,1 2.1731,1.85272 3,3c1.30745,1.814 2,2 2,3l1,0l0,1l1,1" id="svg_28" stroke="#333333" fill="none"/>
  <path d="m163.75562,388.4541c0.66661,0 0.90625,0.43671 1.99985,1.33325c0.92937,0.7619 1.40747,1.24124 2.66647,2.33316c1.06828,0.92651 1.33324,1.66653 1.66653,1.99985c0.33331,0.33331 0.33331,0.33331 0.33331,0.33331c-2.33316,-2.99979 -3.11389,-4.47473 -5.33293,-7.66611c-1.21838,-1.75226 -2.06514,-2.96368 -3.3331,-5.33295c-0.35167,-0.6571 -1.13953,-1.08545 -1.66653,-2.66647c-0.10541,-0.31622 -0.66663,-0.99991 -0.66663,-0.99991c0.66663,0.33331 1.35872,0.31454 2.33316,1.66653c0.6163,0.85507 0.80936,1.80765 2.33316,3.66638c0.29884,0.36453 1.38133,1.97794 1.66655,2.66647c0.40337,0.97379 0.76909,1.27124 0.33331,0.66663c-0.55122,-0.7648 -1.1026,-2.24167 -2.33316,-4.33301c-0.47809,-0.81253 -0.66666,-1.66653 -0.99994,-1.66653c-0.33328,0 0.46016,0.58762 1.66655,2.66644c0.74818,1.28925 1.09773,1.96036 1.99985,4.33304c0.37457,0.9852 0.6259,2.00235 0.66663,2.33316c0.16791,1.36395 0.33331,1.66653 0,1.33322c-0.66663,-0.66663 -2.15277,-2.23099 -2.33316,-2.66647c-0.12755,-0.30795 -0.43578,-0.60461 0,0c0.27562,0.38239 1.33324,1.66656 1.99985,2.66647c0.66663,0.99994 1.3183,1.84958 1.66655,2.99979c0.19318,0.63803 0.62715,0.84265 0.33331,0.99991c-1.05956,0.56708 -1.37811,-1.27039 -2.33318,-1.99985c-0.83763,-0.63977 -1.33322,-0.99991 -1.66653,-1.33322c-0.33331,-0.33331 -0.33331,-0.66663 -0.66663,-0.66663c-0.33331,0 0.20576,0.69199 0.33331,0.99994c0.18039,0.43549 0.66664,0.99991 0.99992,0.6666c0.33328,-0.33331 -0.81676,-1.15009 -1.66653,-1.99985c-0.84978,-0.84976 -1.43086,-1.43085 -1.66655,-1.66653c-0.23569,-0.23569 -0.50854,-0.28354 -0.33331,0c0.39183,0.634 0.99992,0.66663 1.66655,1.33322c0.33331,0.33331 0.69199,0.53906 0.99992,0.66663c0.4355,0.18039 0.43094,0.90231 0.66663,0.66663c0.23569,-0.23569 -0.66663,-0.99994 -0.99994,-1.33325c-0.3333,-0.33328 -0.43549,-0.51367 0,-0.33328c0.30794,0.12756 0.81955,0.23111 0.99994,0.6666c0.12755,0.30795 0.43092,0.43094 0.66661,0.66663c0.23569,0.23569 0.12976,-0.38638 -0.33331,-1.33322c-0.528,-1.07956 -1.04803,-1.64462 -1.33324,-2.33316c-0.40337,-0.97379 -0.40988,-1.32434 -0.3333,-0.99994c0.17123,0.72537 0.90793,1.07419 1.99985,2.33316c0.30885,0.35611 0.90466,1.07047 1.66655,1.99985c0.29884,0.36453 0.3333,1.33325 0.66661,0.99994c0.33331,-0.33331 -0.99142,-1.00677 -2.33316,-2.66647c-0.93712,-1.15921 -0.88454,-1.76471 -0.33331,-0.99994c0.43579,0.60461 0.89746,1.39523 1.33324,1.99985c0.27562,0.38239 0.99992,0.99994 1.33324,1.66656l0,0.33331" id="svg_30" stroke="#333333" fill="none"/>
  <path d="m194.42001,411.45242c0,0.33331 -0.10248,1.06189 0.33331,1.66653c0.55122,0.7648 1.20569,1.69189 1.33324,1.99985c0.18037,0.43549 0.50934,0.96051 0.66661,0.66663c0.56706,-1.05957 -1.42744,-1.60977 -1.99985,-2.66647c-1.20905,-2.23196 -1.11244,-3.43643 -1.66655,-4.33301c-0.2478,-0.40097 -0.30792,-0.12753 0,0c0.4355,0.18039 0.86317,1.07755 1.66655,2.33316c1.15024,1.79773 1.43086,2.7641 1.66653,2.99979c0.23567,0.23566 0.569,0.43091 0.33331,0.6666c-0.23569,0.23569 -0.66661,-0.6666 -1.66653,-1.99985l-0.33331,-0.66663l-0.33331,-0.99991l0,0" id="svg_31" stroke="#333333" fill="none"/>
  <path d="m162.42238,383.12115c0.3333,0.33331 0.66661,0.33331 0.99992,0.66663c0.33331,0.33331 0.3333,0.99994 0.66661,0.99994c0.66663,0 -0.41879,-0.59897 -0.66661,-0.99994c-0.55412,-0.89658 -0.49539,-1.27448 -0.66663,-1.99985c-0.15315,-0.6488 -0.23569,-0.23569 0,0c0.23569,0.23569 0.95917,0.68863 1.33324,1.33322c0.60321,1.03943 0.66663,1.33325 0.99994,1.66656c0.3333,0.33331 0.3333,0.66663 0.66661,0.66663c0.33331,0 0.07005,-0.69278 -0.33331,-1.66656c-0.57042,-1.37714 -0.2756,-1.04901 0,-0.66663c0.43579,0.60461 0.76425,1.43088 0.99992,1.66656c0.23569,0.23569 0.43094,0.76422 0.66663,0.99991c0.23569,0.23569 0.15315,-0.01782 0,-0.6666c-0.17123,-0.72537 -0.46086,-0.97458 -0.33331,-0.66663c0.18039,0.43549 0.68181,1.32828 0.99992,2.33316c1.05028,3.31757 1.55156,5.26144 1.99986,6.99948c0.67116,2.60205 0.66661,3.3331 0.66661,4.66632c0,0.66663 -0.33331,0.66663 -1.33324,-0.33331c-1.33322,-1.33322 -2.80434,-2.87491 -3.99969,-4.33301c-0.76192,-0.92938 -2.34502,-3.83444 -3.3331,-5.33295c-0.25948,-0.39352 -0.39671,-0.96042 -0.99992,-1.99985c-0.37408,-0.64462 -0.66661,-0.99991 -0.99992,-1.33322c-0.33331,-0.33331 -0.69923,-1.27472 -1.33324,-1.66656c-0.28354,-0.17523 -2.06184,-1.23074 -2.66647,-1.66653c-0.76479,-0.55124 -1.59662,-1.66327 -3.99969,-1.99985c-0.66019,-0.09247 -1.96913,-0.49872 -3.3331,-0.66663c-0.3308,-0.04071 -0.66661,0 -1.99985,0c-0.33331,0 -0.76424,-0.23569 -0.99992,0c-0.47137,0.47137 0,1.33325 0,1.99985c0,0.33331 -0.33331,0.99994 0,0.99994c0.33331,0 -0.569,-0.76425 -0.33331,-0.99994c0.23569,-0.23569 0.6666,0.66666 1.66655,1.66656c0.3333,0.33328 0.81953,0.56442 0.99992,0.99991c0.12755,0.30795 0.33331,0.33331 0,-1.33322c-0.33331,-1.66656 -0.33331,-1.99985 -0.33331,-2.66647c0,-0.33331 -0.10246,0.39529 0.33331,0.99991c0.55124,0.7648 1.49532,1.60782 1.66655,2.33316c0.07658,0.3244 0.3333,0.99994 0.3333,1.33325c0,0.33331 -0.52237,-0.42773 -0.99992,-0.99994c-1.06784,-1.27948 -2.33316,-1.66653 -2.33316,-1.99985c0,-0.33331 0.08549,-0.06766 0.33331,0.33331c0.55414,0.89661 0.97246,1.46216 1.33324,2.33316c0.38266,0.92383 0.00002,1.66653 0.3333,1.66653c0.99991,0 -0.66049,-1.90384 -0.99992,-3.66638c-0.25214,-1.3092 -0.64124,-2.53891 -0.3333,-2.66647c0.87099,-0.36078 1.06334,1.29373 1.66653,2.33316c0.37408,0.64462 1.26755,2.66971 1.33324,3.3331c0.16747,1.69125 0.66661,1.99985 0.66661,2.33316l0.33331,0.99991l0,0.66663l0,0.33331" id="svg_32" stroke="#333333" fill="none"/>
  <path d="m198.08641,408.11932c0,0.33331 0.09763,0.76425 0.33331,0.99994c0.23569,0.23569 0.66661,0.33331 0.99992,0.6666c0.33333,0.33331 0.76424,0.43094 0.99992,0.66663c0.23569,0.23569 0.33331,0.33331 0,0c-0.33331,-0.33331 -0.99992,-0.99991 -1.33324,-1.33322c-0.3333,-0.33331 -0.66661,-0.33331 -0.66661,-0.66663c0,-0.33331 0.43094,-0.23569 0.66661,0c0.23569,0.23569 0.09763,0.43094 0.33331,0.66663c0.23569,0.23569 0.56444,0.48624 0.99992,0.6666c0.30794,0.12753 0.33331,0.33331 0.66663,0.33331c0.3333,0 0.81953,0.23114 0.99992,0.66663c0.12755,0.30795 0.2756,0.38239 0,0c-0.43579,-0.60464 -0.81955,-0.56445 -0.99992,-0.99994c-0.12753,-0.30792 -0.43094,-0.43091 -0.66663,-0.6666c-0.23569,-0.23569 -0.33331,-0.33331 0,-0.33331c0.33331,0 0.33331,0.33331 0.66663,0.66663l0.3333,0.33328l0.33331,0" id="svg_33" stroke="#333333" fill="none"/>
  <path d="m222.75127,417.78528c0.3333,0 0.89774,0.48624 1.33322,0.66663c0.30794,0.12756 0.66663,0 0.99994,0c0.3333,0 0.66661,0.33331 0.99992,0.33331c0.33331,0 0.66661,0 0.99992,0c0.33331,0 0.99992,0 1.33324,0c0.33331,0 0.66661,0 0.99992,0c0.33331,0 0.99992,0 1.33324,0c0.33331,0 0.66661,0.33331 0.99992,0.33331c0.33331,0 0.66663,0 0.99992,0c0.33331,0 0.66663,0 0.99992,0c0.33331,0 0.43095,0.09763 0.66663,0.33328c0.23569,0.23569 0.69199,-0.12756 0.99992,0c0.4355,0.18039 0.66661,0.33331 0.99992,0.33331c0.33331,0 0.66663,0 0.99992,0c0.33331,0 0.66663,0 0.99994,0c0.3333,0 0.3333,0 0.66661,0c0.33331,0 0.66661,0 0.99992,0l0.33331,0.33331l0.33331,0l0.3333,0" id="svg_34" stroke="#333333" fill="none"/>
  <path d="m195.08664,405.78616c0.3333,0 0.09761,0.43094 0.3333,0.66663c0.47137,0.47137 0.56444,0.48624 0.99992,0.66663c0.30794,0.12756 0.81955,-0.10217 0.99994,0.33328c0.12756,0.30795 0.23111,0.48624 0.66661,0.66663c0.30794,0.12756 0.33331,0.33331 0.66663,0.33331c0.3333,0 0.43092,0.09763 0.66661,0.33331c0.23569,0.23569 0.27457,0.49539 0.99992,0.66663c0.3244,0.07657 0.56444,0.48621 0.99992,0.6666c0.30794,0.12756 0.43094,0.09763 0.66663,0.33331c0.23569,0.23569 0.3333,0.33331 0.66661,0.66663c0,0 -0.33331,0 -0.66661,0c-0.33331,0 -0.66663,0 -0.99992,0c-0.33331,0 -0.66663,0 -0.66663,0c-0.33331,0 -0.43094,-0.09763 -0.66661,-0.33331c-0.23569,-0.23569 0.81953,-0.10217 0.99992,0.33331c0.12755,0.30795 0.66661,0.33331 0.66661,0.66663l0.33331,0l0,0.33328" id="svg_35" stroke="#333333" fill="none"/>
  <path d="m220.7514,417.11865c0.33331,0 0.86188,-0.13806 1.33324,0.33331c0.23569,0.23569 0.23112,0.81955 0.66663,0.99994c0.61588,0.2551 0.89774,0.48624 1.33322,0.66663c0.30794,0.12756 0.71736,0.07819 1.33324,0.33328c0.87099,0.36078 1.09756,0.43094 1.33324,0.66663c0.23569,0.23569 0.33331,0.33331 0.66663,0.33331c0.3333,0 0.56442,0.15292 0.99992,0.33331c0.30794,0.12756 0.66661,0 0.99992,0c0.33331,0 0.66661,0 0.99992,0c0.33331,0 0.99992,0.33328 0.99992,0c0,-0.33328 -0.35867,-0.20575 -0.66661,-0.33331c-0.4355,-0.18039 -0.33331,-0.66663 -0.66663,-0.66663c-0.66661,0 -0.66661,-0.33331 -0.99992,-0.33331c-0.3333,0 -0.66661,0 -0.99992,0c-0.33331,0 -0.33331,-0.33328 -0.66661,-0.33328c-0.33331,0 -0.66663,0 -0.99992,0c-0.33331,0 -0.66663,0 -0.99994,0c-0.3333,0 -0.66661,0 -0.99992,0c-0.33331,0 -0.66661,0 -0.99992,0c-0.33331,0 -0.66661,0 -0.99992,0c-0.33331,0 -0.33331,0 -0.33331,0c0.33331,0 0.66663,0 0.99992,0c0.33331,0 1.0253,0.20572 1.33324,0.33328c0.4355,0.18039 0.67554,0.25674 0.99992,0.33331c0.72537,0.17123 0.99994,0.33331 1.33324,0.33331c0.33331,0 0.56444,0.15292 0.99992,0.33331c0.30794,0.12756 0.66663,0 0.99994,0c0.3333,0 0.66661,0 0.99992,0c0.3333,0 0.66661,0 0.99992,0c0.33331,0 0.66661,0 0.99992,0c0.33331,0 0.76881,-0.48624 0.33331,-0.66663c-0.30794,-0.12756 -0.09764,-0.43094 -0.33331,-0.6666c-0.23569,-0.23569 -0.66661,0 -0.99992,0c-0.33331,0 -0.66663,-0.33331 -0.99992,-0.33331c-0.66663,0 -0.99992,0 -1.33324,0c-0.33331,0 -0.99992,0 -1.33324,0c-0.33331,0 -0.66661,0 -0.99992,0c-0.33331,0 -0.66663,0 -0.99992,0c-0.33331,0 -0.56444,0.15292 -0.99994,0.33331c-0.30792,0.12753 -0.66661,0 -0.99992,0c-0.3333,0 -0.66661,0 -0.99992,0c0,0 -0.33331,0 -0.66661,-0.33331l-0.33331,0l-0.33331,0" id="svg_36" stroke="#333333" fill="none"/>
  <path d="m154.08966,363.45596c0.3333,0 0.35867,0.20578 0.66661,0.33331c0.43549,0.18036 0.66663,0.99991 0.66663,1.33322c0,0 0.48622,0.23114 0.66661,0.66663c0.12755,0.30795 0.20578,0.35867 0.33331,0.6666c0.18037,0.43549 0.43092,0.43094 0.66661,0.66663c0.23569,0.23569 0.49539,0.27457 0.66663,0.99994c0.07658,0.3244 0.20575,0.69196 0.3333,0.99991c0.18039,0.43549 0.43094,0.43094 0.66663,0.66663c0.23569,0.23569 0.33331,0.33331 0.33331,0.66663c0,0.33331 0.3333,0.33331 0.3333,0.6666c0,0.33331 0,0.66663 0.33331,0.99994c0.33331,0.33331 0.30794,0.79419 0,0.66663c-0.4355,-0.18039 -1.17822,-1.10352 -1.66655,-1.66656c-0.69058,-0.79623 -0.97246,-0.79553 -1.33324,-1.66653c-0.12755,-0.30795 -0.43092,-0.76422 -0.66661,-0.99991c-0.23569,-0.23569 -0.66661,-0.66663 -0.66661,-0.99994c0,-0.33331 0,-0.33331 0,-0.66663c0,-0.33331 -0.43094,-0.43091 -0.66663,-0.6666c-0.23569,-0.23569 0.2748,-0.30069 0.66663,0.33328c0.17523,0.28354 -0.10248,0.72864 0.3333,1.33325c0.55122,0.7648 1.162,1.27448 1.33324,1.99985c0.07658,0.3244 0.87238,1.35858 0.99992,1.66653c0.18039,0.43549 0.81955,0.89777 0.99994,1.33325c0.12755,0.30795 0.11249,0.76996 0.66661,1.66653c0.24782,0.40097 1.1644,0.62616 1.33324,1.66653c0.05339,0.32901 0.20576,0.69199 0.33331,0.99994c0.18037,0.43549 0.63214,0.36453 0.3333,0c-0.7619,-0.92938 -1.30574,-1.35211 -1.99985,-2.33316c-0.96254,-1.36047 -1.33324,-1.99985 -1.66655,-2.66647c-0.3333,-0.66663 -0.82869,-0.94119 -0.99992,-1.66653c-0.07658,-0.3244 -0.04977,-0.49139 -0.33331,-0.66663c-0.63399,-0.39185 -0.48622,-0.89777 -0.66661,-1.33322c-0.12756,-0.30795 -0.33331,-0.66663 -0.33331,-0.99994c0,-0.33331 0.04977,-0.17523 0.33331,0c0.634,0.39185 0.81953,0.89777 0.99992,1.33322c0.12756,0.30795 0.48624,0.56445 0.66663,0.99994c0.12755,0.30795 0.3333,0.33331 0.3333,0.66663c0,0.33331 0.48624,0.23114 0.66663,0.6666c0.12756,0.30795 0.20576,0.35867 0.33331,0.66663c0.18037,0.43549 0.66661,0.66663 0.99992,0.99994c0.3333,0.33331 0.23112,0.81955 0.66661,0.99991c0.30794,0.12753 0.43094,0.09763 0.66663,0.33331c0.23569,0.23569 0.20575,0.35867 0.3333,0.66663c0.18039,0.43549 0.43094,0.43094 0.66663,0.66663c0.23567,0.23569 0.43092,0.09763 0.66661,0.33331c0.23567,0.23566 0,0.6666 0.33331,0.6666l0.33331,0.33331l0.3333,0.33331" id="svg_37" stroke="#333333" fill="none"/>
 </g>

</svg>